<?xml version="1.0" encoding="UTF-8" standalone="no"?>
<!-- Generator: Adobe Illustrator 12.0.1, SVG Export Plug-In . SVG Version: 6.00 Build 51448)  -->
<svg id="Layer_1" xmlns:rdf="http://www.w3.org/1999/02/22-rdf-syntax-ns#" xmlns="http://www.w3.org/2000/svg" xml:space="preserve" overflow="visible" height="197.58" viewBox="0 0 198.13 197.58" width="198.13" version="1.1" enable-background="new 0 0 198.13 197.58" xmlns:cc="http://creativecommons.org/ns#" xmlns:xlink="http://www.w3.org/1999/xlink" xmlns:dc="http://purl.org/dc/elements/1.1/"><metadata id="metadata3320"><rdf:RDF><cc:Work rdf:about=""><dc:format>image/svg+xml</dc:format><dc:type rdf:resource="http://purl.org/dc/dcmitype/StillImage"/><dc:title/></cc:Work></rdf:RDF></metadata><defs id="defs3489"><linearGradient id="XMLID_18_-7" y2="117.41" gradientUnits="userSpaceOnUse" x2="141.03" y1="153.56" x1="194.9"><stop id="stop3285-8" stop-color="#871101" offset="0"/><stop id="stop3289-6" stop-color="#911209" offset=".99"/><stop id="stop3291-0" stop-color="#911209" offset="1"/></linearGradient><linearGradient id="XMLID_19_-4" y2="181.64" gradientUnits="userSpaceOnUse" x2="97.93" y1="217.79" x1="151.8"><stop id="stop3296-6" stop-color="#871101" offset="0"/><stop id="stop3300-6" stop-color="#911209" offset=".99"/><stop id="stop3302-0" stop-color="#911209" offset="1"/></linearGradient><linearGradient id="XMLID_20_-9" y2="181.66" gradientUnits="userSpaceOnUse" x2="47.047" y1="127.39" x1="38.696"><stop id="stop3307-7" stop-color="#fff" offset="0"/><stop id="stop3311-9" stop-color="#E57252" offset=".23"/><stop id="stop3313-7" stop-color="#DE3B20" offset=".46"/><stop id="stop3315-8" stop-color="#A60003" offset=".99"/><stop id="stop3317-5" stop-color="#A60003" offset="1"/></linearGradient><linearGradient id="XMLID_21_-3" y2="132.1" gradientUnits="userSpaceOnUse" x2="99.21" y1="76.715" x1="96.133"><stop id="stop3322-3" stop-color="#fff" offset="0"/><stop id="stop3326-3" stop-color="#E4714E" offset=".23"/><stop id="stop3328-7" stop-color="#BE1A0D" offset=".56"/><stop id="stop3330-9" stop-color="#A80D00" offset=".99"/><stop id="stop3332-3" stop-color="#A80D00" offset="1"/></linearGradient><linearGradient id="XMLID_22_-7" y2="65.216" gradientUnits="userSpaceOnUse" x2="156.31" y1="25.521" x1="147.1"><stop id="stop3337-8" stop-color="#fff" offset="0"/><stop id="stop3341-4" stop-color="#E46342" offset=".18"/><stop id="stop3343-1" stop-color="#C82410" offset=".4"/><stop id="stop3345-9" stop-color="#A80D00" offset=".99"/><stop id="stop3347-0" stop-color="#A80D00" offset="1"/></linearGradient><linearGradient id="XMLID_23_-9" y2="-8.3048" gradientUnits="userSpaceOnUse" x2="158.67" y1="11.542" x1="118.98"><stop id="stop3352-8" stop-color="#fff" offset="0"/><stop id="stop3356-5" stop-color="#C81F11" offset=".54"/><stop id="stop3358-8" stop-color="#BF0905" offset=".99"/><stop id="stop3360-4" stop-color="#BF0905" offset="1"/></linearGradient><linearGradient id="XMLID_24_-3" y2="146.26" gradientUnits="userSpaceOnUse" x2="7.1702" y1="113.55" x1="3.9033"><stop id="stop3365-7" stop-color="#fff" offset="0"/><stop id="stop3369-3" stop-color="#DE4024" offset=".31"/><stop id="stop3371-8" stop-color="#BF190B" offset=".99"/><stop id="stop3373-0" stop-color="#BF190B" offset="1"/></linearGradient><linearGradient id="XMLID_25_-9" y2="-2.8093" gradientUnits="userSpaceOnUse" x2="135.02" y1="155.1" x1="-18.556"><stop id="stop3380-7" stop-color="#BD0012" offset="0"/><stop id="stop3384-9" stop-color="#fff" offset=".07"/><stop id="stop3386-3" stop-color="#fff" offset=".17"/><stop id="stop3388-2" stop-color="#C82F1C" offset=".27"/><stop id="stop3390-4" stop-color="#820C01" offset=".33"/><stop id="stop3392-3" stop-color="#A31601" offset=".46"/><stop id="stop3394-7" stop-color="#B31301" offset=".72"/><stop id="stop3396-1" stop-color="#E82609" offset=".99"/><stop id="stop3398-2" stop-color="#E82609" offset="1"/></linearGradient><linearGradient id="XMLID_26_-2" y2="159.62" gradientUnits="userSpaceOnUse" x2="52.818" y1="171.03" x1="99.075"><stop id="stop3403-0" stop-color="#8C0C01" offset="0"/><stop id="stop3407-1" stop-color="#990C00" offset=".54"/><stop id="stop3409-7" stop-color="#A80D0E" offset=".99"/><stop id="stop3411-5" stop-color="#A80D0E" offset="1"/></linearGradient><linearGradient id="XMLID_27_-1" y2="78.684" gradientUnits="userSpaceOnUse" x2="137.43" y1="115.51" x1="178.53"><stop id="stop3416-7" stop-color="#7E110B" offset="0"/><stop id="stop3420-1" stop-color="#9E0C00" offset=".99"/><stop id="stop3422-7" stop-color="#9E0C00" offset="1"/></linearGradient><linearGradient id="XMLID_28_-1" y2="26.054" gradientUnits="userSpaceOnUse" x2="173.15" y1="47.937" x1="193.62"><stop id="stop3427-1" stop-color="#79130D" offset="0"/><stop id="stop3431-7" stop-color="#9E120B" offset=".99"/><stop id="stop3433-0" stop-color="#9E120B" offset="1"/></linearGradient><radialGradient id="XMLID_29_-4" gradientUnits="userSpaceOnUse" cy="79.388" cx="143.83" r="50.358"><stop id="stop3440-0" stop-color="#A80D00" offset="0"/><stop id="stop3444-5" stop-color="#7E0E08" offset=".99"/><stop id="stop3446-1" stop-color="#7E0E08" offset="1"/></radialGradient><radialGradient id="XMLID_30_-6" gradientUnits="userSpaceOnUse" cy="145.75" cx="74.092" r="66.944"><stop id="stop3451-6" stop-color="#A30C00" offset="0"/><stop id="stop3455-1" stop-color="#800E08" offset=".99"/><stop id="stop3457-9" stop-color="#800E08" offset="1"/></radialGradient><linearGradient id="XMLID_31_-6" y2="140.74" gradientUnits="userSpaceOnUse" x2="9.9887" y1="197.34" x1="26.67"><stop id="stop3462-4" stop-color="#8B2114" offset="0"/><stop id="stop3466-0" stop-color="#9E100A" offset=".43"/><stop id="stop3468-8" stop-color="#B3100C" offset=".99"/><stop id="stop3470-1" stop-color="#B3100C" offset="1"/></linearGradient><linearGradient id="XMLID_32_-0" y2="26.306" gradientUnits="userSpaceOnUse" x2="192.04" y1="9.7979" x1="154.64"><stop id="stop3475-2" stop-color="#B31000" offset="0"/><stop id="stop3479-9" stop-color="#910F08" offset=".44"/><stop id="stop3481-7" stop-color="#791C12" offset=".99"/><stop id="stop3483-5" stop-color="#791C12" offset="1"/></linearGradient><linearGradient id="linearGradient3448" y2="141.75" gradientUnits="userSpaceOnUse" y1="215.55" x2="132.28" x1="174.07"><stop id="stop3272-4" stop-color="#FB7655" offset="0"/><stop id="stop3276-1" stop-color="#E42B1E" offset=".41"/><stop id="stop3278-0" stop-color="#900" offset=".99"/><stop id="stop3280-3" stop-color="#900" offset="1"/></linearGradient></defs><g clip-rule="evenodd" fill-rule="evenodd"><polygon id="polygon3282" points="153.5 130.41 40.38 197.58 186.85 187.64 198.13 39.95" fill="url(#linearGradient3448)"/><polygon id="polygon3293" points="187.09 187.54 174.5 100.65 140.21 145.93" fill="url(#XMLID_18_-7)"/><polygon id="polygon3304" points="187.26 187.54 95.03 180.3 40.87 197.39" fill="url(#XMLID_19_-4)"/><polygon id="polygon3319" points="41 197.41 64.04 121.93 13.34 132.77" fill="url(#XMLID_20_-9)"/><polygon id="polygon3334" points="140.2 146.18 119 63.14 58.33 120.01" fill="url(#XMLID_21_-3)"/><polygon id="polygon3349" points="193.32 64.31 135.97 17.47 120 69.1" fill="url(#XMLID_22_-7)"/><polygon id="polygon3362" points="166.5 0.77 132.77 19.41 111.49 0.52" fill="url(#XMLID_23_-9)"/><polygon id="polygon3375" points="0 158.09 14.13 132.32 2.7 101.62" fill="url(#XMLID_24_-3)"/><path id="path3377" d="m1.94 100.65 11.5 32.62 49.97-11.211 57.05-53.02l16.1-51.14-25.35-17.9-43.101 16.13c-13.579 12.63-39.929 37.62-40.879 38.09-0.94 0.48-17.4 31.59-25.29 46.43z" fill="#fff"/><path id="path3400" d="m42.32 42.05c29.43-29.18 67.37-46.42 81.93-31.73 14.551 14.69-0.88 50.39-30.31 79.56s-66.9 47.36-81.45 32.67c-14.56-14.68 0.4-51.33 29.83-80.5z" fill="url(#XMLID_25_-9)"/><path id="path3413" d="m41 197.38 22.86-75.72 75.92 24.39c-27.45 25.74-57.98 47.5-98.78 51.33z" fill="url(#XMLID_26_-2)"/><path id="path3424" d="m120.56 68.89 19.49 77.2c22.93-24.11 43.51-50.03 53.59-82.09l-73.079 4.89z" fill="url(#XMLID_27_-1)"/><path id="path3435" d="m193.44 64.39c7.8-23.54 9.6-57.31-27.181-63.58l-30.18 16.67 57.361 46.91z" fill="url(#XMLID_28_-1)"/><path id="path3437" d="m0 157.75c1.08 38.851 29.11 39.43 41.05 39.771l-27.58-64.41-13.47 24.64z" fill="#9e1209"/><path id="path3448" d="m120.67 69.01c17.62 10.83 53.131 32.58 53.851 32.98 1.119 0.63 15.31-23.93 18.53-37.81l-72.381 4.83z" fill="url(#XMLID_29_-4)"/><path id="path3459" d="m63.83 121.66 30.56 58.96c18.07-9.8 32.22-21.74 45.18-34.53l-75.74-24.43z" fill="url(#XMLID_30_-6)"/><path id="path3472" d="m13.35 133.19-4.33 51.56c8.17 11.16 19.41 12.13 31.2 11.26-8.53-21.23-25.57-63.68-26.87-62.82z" fill="url(#XMLID_31_-6)"/><path id="path3485" d="m135.9 17.61 60.71 8.52c-3.24-13.73-13.19-22.59-30.15-25.36l-30.56 16.84z" fill="url(#XMLID_32_-0)"/></g></svg>
