<?xml version="1.0" encoding="UTF-8" standalone="no"?>
<svg
   xmlns:dc="http://purl.org/dc/elements/1.1/"
   xmlns:cc="http://creativecommons.org/ns#"
   xmlns:rdf="http://www.w3.org/1999/02/22-rdf-syntax-ns#"
   xmlns:svg="http://www.w3.org/2000/svg"
   xmlns="http://www.w3.org/2000/svg"
   xmlns:sodipodi="http://sodipodi.sourceforge.net/DTD/sodipodi-0.dtd"
   xmlns:inkscape="http://www.inkscape.org/namespaces/inkscape"
   viewBox="0 -256 1900 1900"
   id="svg2"
   version="1.1"
   inkscape:version="0.48.3.1 r9886"
   width="100%"
   height="100%"
   sodipodi:docname="paste_font_awesome.svg">
  <metadata
     id="metadata12">
    <rdf:RDF>
      <cc:Work
         rdf:about="">
        <dc:format>image/svg+xml</dc:format>
        <dc:type
           rdf:resource="http://purl.org/dc/dcmitype/StillImage" />
      </cc:Work>
    </rdf:RDF>
  </metadata>
  <defs
     id="defs10" />
  <sodipodi:namedview
     pagecolor="#ffffff"
     bordercolor="#666666"
     borderopacity="1"
     objecttolerance="10"
     gridtolerance="10"
     guidetolerance="10"
     inkscape:pageopacity="0"
     inkscape:pageshadow="2"
     inkscape:window-width="640"
     inkscape:window-height="480"
     id="namedview8"
     showgrid="false"
     inkscape:zoom="0.13169643"
     inkscape:cx="896"
     inkscape:cy="896"
     inkscape:window-x="0"
     inkscape:window-y="25"
     inkscape:window-maximized="0"
     inkscape:current-layer="svg2" />
  <g
     transform="matrix(1,0,0,-1,53.152542,1325.0847)"
     id="g4">
    <path
       d="m 768,-128 h 896 v 640 h -416 q -40,0 -68,28 -28,28 -28,68 v 416 H 768 V -128 z m 256,1440 v 64 q 0,13 -9.5,22.5 -9.5,9.5 -22.5,9.5 H 288 q -13,0 -22.5,-9.5 Q 256,1389 256,1376 v -64 q 0,-13 9.5,-22.5 9.5,-9.5 22.5,-9.5 h 704 q 13,0 22.5,9.5 9.5,9.5 9.5,22.5 z m 256,-672 h 299 L 1280,939 V 640 z m 512,-128 v -672 q 0,-40 -28,-68 -28,-28 -68,-28 H 736 q -40,0 -68,28 -28,28 -28,68 V 0 H 96 Q 56,0 28,28 0,56 0,96 v 1344 q 0,40 28,68 28,28 68,28 h 1088 q 40,0 68,-28 28,-28 28,-68 v -328 q 21,-13 36,-28 l 408,-408 q 28,-28 48,-76 20,-48 20,-88 z"
       id="path6"
       inkscape:connector-curvature="0"
       style="fill:currentColor" />
  </g>
</svg>
